<svg width="47" height="56" viewBox="0 0 47 56" fill="none" xmlns="http://www.w3.org/2000/svg">
<g opacity="0.16">
<path d="M45.5917 37.169V27.5039C45.5917 27.0559 45.4739 26.6159 45.2502 26.2278L38.2448 14.0819C37.7887 13.2911 36.9453 12.8041 36.0323 12.8041H25.1882V9.40222C25.1882 7.99174 24.0446 6.84814 22.6341 6.84814H-28.5042C-29.9147 6.84814 -31.0583 7.99159 -31.0583 9.40222V36.9726C-32.1725 37.2472 -33 38.2503 -33 39.4494C-33 40.8598 -31.8564 42.0034 -30.4459 42.0034H-23.0948C-22.4171 46.0541 -18.8887 49.1519 -14.6485 49.1519C-10.4083 49.1519 -6.8799 46.0542 -6.20224 42.0034H24.2452C24.9229 46.0541 28.4513 49.1519 32.6915 49.1519C36.9317 49.1519 40.4601 46.0542 41.1378 42.0034H44.4458C45.8562 42.0034 46.9998 40.86 46.9998 39.4494C47.0003 38.4512 46.4264 37.5892 45.5917 37.169ZM-14.6482 44.0438C-16.5549 44.0438 -18.106 42.4927 -18.106 40.5859C-18.106 38.6792 -16.5549 37.1281 -14.6482 37.1281C-12.7415 37.1281 -11.1904 38.6792 -11.1904 40.5859C-11.1905 42.4927 -12.7416 44.0438 -14.6482 44.0438ZM20.0804 36.8953H-6.91959C-8.30084 34.0145 -11.246 32.0201 -14.6484 32.0201C-18.0507 32.0201 -20.996 34.0145 -22.3771 36.8953H-25.9501V11.9561H20.0804V36.8953ZM25.1884 17.9121H34.557L38.0637 23.9918H25.1884V17.9121ZM32.6918 44.0438C30.7851 44.0438 29.234 42.4927 29.234 40.5859C29.234 38.6792 30.7851 37.1281 32.6918 37.1281C34.5985 37.1281 36.1496 38.6792 36.1496 40.5859C36.1496 42.4927 34.5984 44.0438 32.6918 44.0438ZM40.4836 36.8953H40.4206C39.0393 34.0145 36.0942 32.0201 32.6918 32.0201C29.4638 32.0201 26.6482 33.8154 25.1882 36.4595V29.0996H40.4836V36.8953Z" fill="#FCFCFC"/>
</g>
</svg>
